<?xml version="1.0" encoding="utf-8"?>
<!-- Generator: Adobe Illustrator 16.0.0, SVG Export Plug-In . SVG Version: 6.00 Build 0)  -->
<!DOCTYPE svg PUBLIC "-//W3C//DTD SVG 1.1//EN" "http://www.w3.org/Graphics/SVG/1.1/DTD/svg11.dtd">
<svg version="1.1" id="图层_1" xmlns="http://www.w3.org/2000/svg" xmlns:xlink="http://www.w3.org/1999/xlink" x="0px" y="0px"
	 width="96px" height="96px" viewBox="0 0 96 96" enable-background="new 0 0 96 96" xml:space="preserve">
<g id="DO_NOT_EDIT_-_BOUNDING_BOX">
</g>
<g id="DO_NOT_EDIT_-_SHADOW">
</g>
<g id="BLUE_BACKGROUNDS">
	<g id="BLUE_4_2_">
	</g>
</g>
<g>
	<rect id="BOUNDING_BOX" fill="none" width="96" height="96"/>
	<g>
		<path id="SHADOW" opacity="0.4" enable-background="new    " d="M88.023,49c0,29.633-10.364,40-40,40c-29.635,0-40-10.367-40-40
			c0-29.634,10.366-40,40-40C77.659,9,88.023,19.365,88.023,49z"/>
		
			<linearGradient id="BLUE_4_3_" gradientUnits="userSpaceOnUse" x1="389.9199" y1="506.3301" x2="389.9199" y2="586.3096" gradientTransform="matrix(1 0 0 1 -341.9199 -498.3203)">
			<stop  offset="0.1183" style="stop-color:#5BB9F0"/>
			<stop  offset="0.3173" style="stop-color:#44A8EB"/>
			<stop  offset="0.7737" style="stop-color:#1386E0"/>
			<stop  offset="1" style="stop-color:#0078DC"/>
		</linearGradient>
		<path id="BLUE_4_1_" fill="url(#BLUE_4_3_)" d="M8,47.989c0,29.633,10.365,40,40,40c29.637,0,40-10.367,40-40
			c0-28.985-9.926-39.53-38.091-39.979h-3.817C17.928,8.459,8,19.004,8,47.989z"/>
		
			<radialGradient id="SVGID_1_" cx="-565.96" cy="638.2021" r="66.2022" fx="-565.96" fy="704.4042" gradientTransform="matrix(1 0 0 -0.9 613.96 626.524)" gradientUnits="userSpaceOnUse">
			<stop  offset="0.2742" style="stop-color:#5BBEFF"/>
			<stop  offset="0.453" style="stop-color:#49B0F6;stop-opacity:0.7536"/>
			<stop  offset="0.8495" style="stop-color:#0078D3;stop-opacity:0"/>
		</radialGradient>
		<path opacity="0.8" fill="url(#SVGID_1_)" enable-background="new    " d="M48,86.99c-29.158,0-39-9.842-39-39
			C9,19.646,18.711,9.447,46.107,9.01h3.802C77.292,9.447,87,19.646,87,47.99C87,77.148,77.159,86.99,48,86.99z"/>
		
			<linearGradient id="HIGHLIGHT_BLU4_1_" gradientUnits="userSpaceOnUse" x1="389.9199" y1="506.5762" x2="389.9199" y2="585.8251" gradientTransform="matrix(1 0 0 1 -341.9199 -498.3203)">
			<stop  offset="0.3751" style="stop-color:#FFFFFF"/>
			<stop  offset="0.9715" style="stop-color:#004FD3"/>
		</linearGradient>
		<path id="HIGHLIGHT_BLU4" opacity="0.3" fill="url(#HIGHLIGHT_BLU4_1_)" enable-background="new    " d="M48,8
			C18.365,8,8,18.365,8,48c0,29.633,10.365,40,40,40c29.637,0,40-10.367,40-40C88,18.365,77.637,8,48,8z M48,87.023
			C18.842,87.023,9,77.176,9,48S18.842,8.977,48,8.977S87,18.824,87,48S77.158,87.023,48,87.023z"/>
		<g>
			<path fill-opacity="0.02" d="M30.628,73.836c-0.96,0-1.864-0.373-2.542-1.053c-1.733-1.732-1.482-3.602-1.293-4.326
				c0.282-1.082,0.975-2.01,2.017-2.707V47.591c-0.688,0.402-1.481,0.623-2.298,0.623c-0.079,0-0.278-0.008-0.357-0.017
				c-1.106-0.093-2.126-0.717-2.725-1.667l-3.002-4.762c-0.846-1.341-0.705-3.107,0.343-4.297
				c0.48-0.544,11.942-13.308,29.036-13.308c6.712,0,12.837,2.123,17.251,5.976c4.504,3.915,7.078,9.583,7.066,15.55
				c0.018,5.958-2.75,11.569-7.594,15.387c-4.424,3.514-10.364,5.451-16.724,5.451c-3.281,0-6.392-0.543-8.697-1.088v0.348
				c1.037,0.705,1.703,1.613,1.98,2.705c0.185,0.719,0.428,2.578-1.286,4.291c-0.68,0.68-1.584,1.055-2.543,1.055h-8.631V73.836z
				 M41.107,55.24c2.301,0.721,5.229,1.131,8.15,1.131c3.289,0,6.25-1.131,8.332-3.188c2.004-1.994,3.028-4.553,3.039-7.597
				c-0.01-3.252-1.033-6.084-2.967-8.185c-2.039-2.201-4.939-3.368-8.387-3.371c-2.677,0-5.818,0.729-8.168,1.878V55.24z"/>
			<path fill-opacity="0.02" d="M30.628,72.938c-0.72,0-1.398-0.281-1.907-0.791c-1.405-1.404-1.209-2.889-1.06-3.463
				c0.261-0.998,0.964-1.83,2.046-2.428V45.432c-0.078,0.14-0.164,0.274-0.26,0.404c-0.682,0.926-1.78,1.478-2.939,1.478
				c-0.061,0-0.213-0.006-0.274-0.011c-0.83-0.07-1.598-0.538-2.046-1.251l-3.003-4.764c-0.634-1.005-0.528-2.33,0.258-3.222
				c0.469-0.531,11.666-13.002,28.36-13.002c6.494,0,12.41,2.043,16.659,5.754c4.307,3.743,6.77,9.164,6.759,14.87
				c0.018,5.68-2.625,11.036-7.251,14.682c-4.268,3.391-10.012,5.258-16.167,5.258c-3.634,0-7.07-0.672-9.598-1.342v2.002
				c1.079,0.613,1.753,1.428,2.009,2.428c0.146,0.57,0.335,2.047-1.052,3.434c-0.509,0.508-1.188,0.789-1.908,0.789H30.628
				L30.628,72.938z M40.208,55.887c2.48,0.883,5.737,1.383,9.05,1.383c3.541,0,6.711-1.223,8.963-3.443
				c2.182-2.172,3.295-4.943,3.309-8.236c-0.01-3.486-1.118-6.53-3.205-8.797c-2.215-2.391-5.346-3.658-9.049-3.661
				c-3.009,0-6.577,0.886-9.068,2.229L40.208,55.887L40.208,55.887z"/>
			<path fill-opacity="0.05" d="M30.628,72.037c-0.479,0-0.931-0.186-1.271-0.527c-1.036-1.033-0.961-2.072-0.824-2.598
				c0.3-1.152,1.337-1.775,2.076-2.098V40.382c-0.572,0.619-1.047,1.23-1.424,1.827c0.271,1.291,0.121,2.305-0.459,3.094
				c-0.512,0.696-1.339,1.111-2.213,1.111c-0.042,0-0.149-0.003-0.192-0.008c-0.556-0.046-1.069-0.359-1.368-0.833l-3.004-4.764
				c-0.422-0.67-0.353-1.555,0.172-2.149c0.458-0.52,11.388-12.699,27.686-12.699c6.276,0,11.982,1.965,16.067,5.533
				c4.11,3.573,6.462,8.746,6.45,14.191c0.018,5.406-2.501,10.504-6.908,13.979c-4.11,3.266-9.655,5.063-15.609,5.063
				c-4.14,0-8.029-0.898-10.496-1.627v3.736c1.142,0.523,1.811,1.215,2.038,2.1c0.133,0.523,0.206,1.555-0.816,2.574
				c-0.34,0.342-0.792,0.527-1.271,0.527H30.628z M39.309,56.508c2.649,1.061,6.234,1.66,9.949,1.66c0.004,0,0.027,0,0.033,0
				c3.746,0,7.141-1.314,9.562-3.701c2.358-2.348,3.563-5.332,3.575-8.873c-0.011-3.717-1.201-6.974-3.441-9.409
				c-2.391-2.582-5.748-3.949-9.709-3.952c-3.396,0-7.327,1.036-9.969,2.604V56.508L39.309,56.508z"/>
			<path fill-opacity="0.05" d="M30.628,71.139c-0.239,0-0.467-0.094-0.636-0.264c-0.683-0.684-0.698-1.322-0.59-1.736
				c0.229-0.879,1.156-1.377,2.105-1.707V38.254c-1.453,1.283-2.57,2.575-3.284,3.804c0.314,1.193,0.239,2.083-0.224,2.714
				c-0.342,0.466-0.899,0.745-1.488,0.745c-0.025,0-0.087-0.002-0.112-0.004c-0.281-0.023-0.535-0.179-0.686-0.417l-3.004-4.766
				c-0.213-0.337-0.178-0.775,0.086-1.075c0.446-0.506,11.113-12.394,27.01-12.394c6.058,0,11.556,1.886,15.476,5.311
				c3.915,3.402,6.154,8.328,6.143,13.512c0.016,5.132-2.377,9.97-6.563,13.275c-3.956,3.139-9.303,4.869-15.055,4.869
				c-4.809,0-9.301-1.26-11.396-1.949v5.563c0.896,0.324,1.841,0.838,2.066,1.719c0.105,0.41,0.09,1.045-0.581,1.715
				c-0.169,0.17-0.396,0.266-0.636,0.266h-8.631V71.139z M49.279,59.967l0.012-0.898c3.983,0,7.604-1.406,10.194-3.963
				c2.534-2.525,3.829-5.723,3.842-9.508c-0.011-3.95-1.282-7.418-3.679-10.021c-2.566-2.771-6.153-4.238-10.371-4.242
				c-3.754,0-8.126,1.222-10.868,3.003v22.768c2.81,1.252,6.722,1.963,10.848,1.963h0.021V59.967z"/>
			<path fill-opacity="0.15" d="M64.689,32.85c-3.695-3.227-8.87-5.089-14.885-5.089c-15.674,0-26.336,12.089-26.336,12.089
				l3.005,4.765c0,0,1.662,0.14,0.782-2.667c0.76-1.435,2.248-3.366,5.151-5.596c0,0,0,30.107,0,31.742
				c-1.251,0.354-2.906,1.018-1.779,2.145c1.927,0,7.2,0,8.63,0c1.14-1.139-0.656-1.824-1.747-2.145c0-1.225,0-7.486,0-7.486
				s5.916,2.32,12.294,2.32c5.604,0,10.703-1.666,14.497-4.676c3.794-2.992,6.238-7.461,6.223-12.571
				C70.535,40.667,68.387,36.064,64.689,32.85z M60.115,55.746c-2.623,2.588-6.438,4.225-10.836,4.221
				c-4.909,0.004-9.042-0.945-11.769-2.291c0,0,0-0.82,0-6.82c0-6.49,0-16.994,0-16.994c2.993-2.125,7.848-3.435,11.769-3.427
				c4.763,0.004,8.503,1.802,11.031,4.533c2.526,2.747,3.905,6.394,3.916,10.634C64.212,49.732,62.738,53.137,60.115,55.746z"/>
			
				<linearGradient id="SVGID_2_" gradientUnits="userSpaceOnUse" x1="217.9561" y1="-101.6216" x2="217.9561" y2="-144.1001" gradientTransform="matrix(1 0 0 -1 -170.96 -75.6602)">
				<stop  offset="0.2527" style="stop-color:#F7F8F8"/>
				<stop  offset="0.6987" style="stop-color:#F0F0F1"/>
				<stop  offset="1" style="stop-color:#E8E8E9"/>
			</linearGradient>
			<path fill="url(#SVGID_2_)" d="M64.689,31.051c-3.695-3.227-8.87-5.089-14.885-5.089c-15.674,0-26.336,12.089-26.336,12.089
				l3.005,4.766c0,0,1.662,0.139,0.782-2.667c0.76-1.435,2.248-3.366,5.151-5.596c0,0,0,30.109,0,31.742
				c-1.251,0.355-2.906,1.018-1.779,2.145c1.927,0,7.2,0,8.63,0c1.14-1.139-0.656-1.824-1.748-2.145c0-1.225,0-7.488,0-7.488
				s5.917,2.322,12.294,2.322c5.605,0,10.704-1.666,14.498-4.676c3.792-2.992,6.238-7.461,6.222-12.57
				C70.535,38.868,68.387,34.265,64.689,31.051z M60.115,53.947c-2.623,2.588-6.438,4.225-10.836,4.221
				c-4.909,0.004-9.042-0.945-11.769-2.289c0,0,0-0.822,0-6.822c0-6.49,0-16.993,0-16.993c2.993-2.125,7.848-3.435,11.769-3.427
				c4.763,0.004,8.503,1.802,11.031,4.533c2.526,2.747,3.905,6.394,3.916,10.634C64.212,47.934,62.738,51.338,60.115,53.947z"/>
			<g>
				
					<linearGradient id="SVGID_3_" gradientUnits="userSpaceOnUse" x1="221.8281" y1="-119.8887" x2="221.8281" y2="-134.729" gradientTransform="matrix(1 0 0 -1 -170.96 -75.6602)">
					<stop  offset="0.2527" style="stop-color:#F7F8F8"/>
					<stop  offset="0.9772" style="stop-color:#FFFFFF"/>
					<stop  offset="1" style="stop-color:#FFFFFF"/>
				</linearGradient>
				<path fill="url(#SVGID_3_)" d="M49.279,59.068c4.398,0.004,8.213-1.635,10.836-4.223c2.623-2.609,4.097-6.014,4.111-10.144
					c0-0.161-0.017-0.314-0.02-0.474c-0.112,3.938-1.561,7.201-4.092,9.719c-2.623,2.588-6.438,4.225-10.836,4.221
					c-4.909,0.004-9.042-0.945-11.769-2.289c0,0.727,0,0.898,0,0.898C40.237,58.121,44.37,59.07,49.279,59.068z"/>
				
					<linearGradient id="SVGID_4_" gradientUnits="userSpaceOnUse" x1="217.957" y1="-101.6216" x2="217.957" y2="-120.1333" gradientTransform="matrix(1 0 0 -1 -170.96 -75.6602)">
					<stop  offset="0.2527" style="stop-color:#F7F8F8"/>
					<stop  offset="0.9772" style="stop-color:#FFFFFF"/>
					<stop  offset="1" style="stop-color:#FFFFFF"/>
				</linearGradient>
				<path fill="url(#SVGID_4_)" d="M49.805,26.861c6.015,0,11.189,1.862,14.885,5.089c3.621,3.147,5.742,7.63,5.819,12.523
					c0.007-0.196,0.018-0.392,0.017-0.589c0.01-5.015-2.137-9.618-5.836-12.833c-3.693-3.227-8.868-5.089-14.884-5.089
					c-15.674,0-26.336,12.089-26.336,12.089l0.338,0.537C25.72,36.585,35.743,26.861,49.805,26.861z"/>
				
					<linearGradient id="SVGID_5_" gradientUnits="userSpaceOnUse" x1="202.291" y1="-141.9556" x2="202.291" y2="-143.8481" gradientTransform="matrix(1 0 0 -1 -170.96 -75.6602)">
					<stop  offset="0.2527" style="stop-color:#F7F8F8"/>
					<stop  offset="0.9772" style="stop-color:#FFFFFF"/>
					<stop  offset="1" style="stop-color:#FFFFFF"/>
				</linearGradient>
				<path fill="url(#SVGID_5_)" d="M32.406,67.195c0-0.129,0-0.449,0-0.9c-1.154,0.326-2.647,0.918-1.986,1.893
					C30.779,67.727,31.663,67.404,32.406,67.195z"/>
				
					<linearGradient id="SVGID_6_" gradientUnits="userSpaceOnUse" x1="198.3418" y1="-116.4277" x2="198.3418" y2="-117.6172" gradientTransform="matrix(1 0 0 -1 -170.96 -75.6602)">
					<stop  offset="0.2527" style="stop-color:#F7F8F8"/>
					<stop  offset="0.9772" style="stop-color:#FFFFFF"/>
					<stop  offset="1" style="stop-color:#FFFFFF"/>
				</linearGradient>
				<path fill="url(#SVGID_6_)" d="M27.255,41.048c0.109,0.346,0.178,0.646,0.217,0.909c0.058-0.288,0.052-0.675-0.057-1.189
					C27.362,40.861,27.303,40.958,27.255,41.048z"/>
				
					<linearGradient id="SVGID_7_" gradientUnits="userSpaceOnUse" x1="209.5244" y1="-141.9556" x2="209.5244" y2="-143.8599" gradientTransform="matrix(1 0 0 -1 -170.96 -75.6602)">
					<stop  offset="0.2527" style="stop-color:#F7F8F8"/>
					<stop  offset="0.9772" style="stop-color:#FFFFFF"/>
					<stop  offset="1" style="stop-color:#FFFFFF"/>
				</linearGradient>
				<path fill="url(#SVGID_7_)" d="M37.51,66.295c0,0.391,0,0.711,0,0.9c0.662,0.193,1.578,0.521,1.948,1.004
					C40.136,67.203,38.524,66.594,37.51,66.295z"/>
			</g>
		</g>
	</g>
</g>
</svg>
